<?xml version="1.0" encoding="UTF-8"?>
<svg id="Layer_2" data-name="Layer 2" xmlns="http://www.w3.org/2000/svg" viewBox="0 0 352.61 92">
  <defs>
    <style>
      .cls-1 {
        fill: #fff;
      }

      .cls-2 {
        fill: #1971b9;
      }

      .cls-3 {
        fill: #29abe2;
      }
    </style>
  </defs>
  <g id="Layer_1-2" data-name="Layer 1">
    <g>
      <g>
        <polygon class="cls-2" points="87.88 6.44 50.31 6.44 40.2 6.44 2.63 6.44 34.52 46.85 34.52 92 56.07 81.9 55.99 46.85 87.88 6.44"/>
        <path class="cls-1" d="M54.66,44.11c8.66-12.33,18.11-24.32,28.09-35.61-8.66,12.33-18.12,24.31-28.09,35.61h0Z"/>
        <path class="cls-1" d="M36.56,51.53c.41,11.88,.55,24.89,.59,36.8,0,0-.84-.53-.84-.53,2.92-1.39,5.84-2.78,8.78-4.13l8.8-4.07-.31,.49c.04-9.52,.18-19.04,.48-28.56,.35,9.63,.54,19.27,.61,28.91-5.3,2.5-12.6,6.03-17.86,8.42,0,0-.84,.39-.84,.39v-.92c.05-11.92,.18-24.91,.59-36.8h0Z"/>
        <path class="cls-1" d="M7.65,8.51c9.98,11.29,19.44,23.27,28.09,35.61C25.76,32.82,16.31,20.84,7.65,8.51h0Z"/>
        <rect class="cls-3" x="0" y="0" width="90.42" height="4.6" rx="2.3" ry="2.3"/>
      </g>
      <path class="cls-2" d="M106.01,62.85h-6.94l15.59-43.33h7.55l15.59,43.33h-6.94l-12.25-35.46h-.34l-12.27,35.46Zm1.16-16.97h22.51v5.5h-22.51v-5.5Z"/>
      <path class="cls-3" d="M147.01,25.34c-1.1,0-2.04-.37-2.83-1.11s-1.17-1.63-1.17-2.66,.39-1.94,1.17-2.68,1.72-1.11,2.83-1.11,2.04,.37,2.82,1.11,1.17,1.63,1.17,2.68-.39,1.91-1.17,2.66-1.72,1.11-2.82,1.11Z"/>
      <rect class="cls-2" x="143.82" y="30.35" width="6.33" height="32.5"/>
      <path class="cls-2" d="M195.15,33.61h-6.6c-.25-1.41-.73-2.65-1.42-3.72s-1.54-1.98-2.54-2.73c-1-.75-2.12-1.31-3.35-1.69s-2.54-.57-3.92-.57c-2.5,0-4.73,.63-6.7,1.88s-3.52,3.1-4.65,5.52c-1.14,2.43-1.7,5.39-1.7,8.89s.57,6.5,1.7,8.93c1.13,2.43,2.69,4.26,4.67,5.5s4.2,1.86,6.67,1.86c1.37,0,2.67-.19,3.9-.56,1.23-.37,2.35-.93,3.35-1.66,1-.73,1.85-1.63,2.55-2.7,.7-1.06,1.18-2.29,1.45-3.67l6.6,.02c-.35,2.13-1.03,4.09-2.04,5.87-1.01,1.78-2.3,3.32-3.87,4.61s-3.37,2.29-5.38,2.99c-2.02,.71-4.22,1.06-6.6,1.06-3.75,0-7.1-.89-10.03-2.68-2.93-1.78-5.24-4.34-6.93-7.67-1.69-3.33-2.53-7.3-2.53-11.91s.85-8.6,2.54-11.92c1.69-3.32,4.01-5.87,6.94-7.66,2.93-1.78,6.27-2.68,10.01-2.68,2.3,0,4.45,.33,6.44,.98s3.79,1.62,5.39,2.88c1.59,1.26,2.91,2.8,3.96,4.61,1.04,1.81,1.75,3.88,2.12,6.21Z"/>
      <path class="cls-2" d="M216.16,63.51c-3.05,0-5.71-.7-7.98-2.09-2.27-1.4-4.03-3.35-5.29-5.86-1.25-2.51-1.88-5.44-1.88-8.8s.63-6.32,1.88-8.84c1.26-2.52,3.02-4.49,5.29-5.88,2.27-1.4,4.93-2.09,7.98-2.09s5.71,.7,7.98,2.09c2.27,1.4,4.03,3.36,5.29,5.88,1.26,2.53,1.88,5.47,1.88,8.84s-.63,6.29-1.88,8.8c-1.25,2.51-3.02,4.46-5.29,5.86-2.27,1.4-4.93,2.09-7.98,2.09Zm.02-5.31c1.97,0,3.61-.52,4.91-1.57,1.3-1.04,2.26-2.43,2.89-4.17,.63-1.73,.94-3.65,.94-5.73s-.31-3.98-.94-5.72c-.63-1.74-1.59-3.14-2.89-4.2-1.3-1.06-2.93-1.59-4.91-1.59s-3.64,.53-4.94,1.59c-1.3,1.06-2.27,2.46-2.9,4.2-.63,1.74-.94,3.65-.94,5.72s.31,4,.94,5.73c.63,1.74,1.59,3.12,2.9,4.17s2.95,1.57,4.94,1.57Z"/>
      <path class="cls-2" d="M244.68,19.52V62.85h-6.33V19.52h6.33Z"/>
      <path class="cls-2" d="M259.51,19.52V62.85h-6.33V19.52h6.33Z"/>
      <path class="cls-2" d="M282.02,63.51c-3.2,0-5.96-.69-8.26-2.06-2.31-1.38-4.08-3.31-5.33-5.82-1.25-2.5-1.87-5.44-1.87-8.81s.62-6.26,1.87-8.8c1.25-2.54,3-4.52,5.25-5.95s4.88-2.14,7.9-2.14c1.83,0,3.61,.3,5.33,.91s3.27,1.56,4.63,2.86,2.45,2.98,3.24,5.05,1.19,4.57,1.19,7.52v2.24h-25.83v-4.74h19.63c0-1.66-.34-3.14-1.02-4.43-.68-1.29-1.63-2.31-2.85-3.06-1.22-.75-2.65-1.12-4.28-1.12-1.78,0-3.33,.43-4.64,1.3-1.32,.87-2.33,2-3.05,3.39-.71,1.39-1.07,2.9-1.07,4.52v3.7c0,2.17,.38,4.02,1.15,5.54,.77,1.52,1.84,2.68,3.23,3.48,1.38,.8,3,1.2,4.84,1.2,1.2,0,2.29-.17,3.28-.52,.99-.35,1.84-.86,2.56-1.56,.72-.69,1.27-1.54,1.65-2.56l5.99,1.08c-.48,1.76-1.34,3.3-2.57,4.62-1.23,1.32-2.78,2.34-4.63,3.07-1.85,.73-3.97,1.09-6.34,1.09Z"/>
      <path class="cls-2" d="M316.7,63.51c-3.15,0-5.85-.72-8.11-2.15s-4-3.41-5.22-5.94c-1.21-2.52-1.82-5.42-1.82-8.68s.62-6.22,1.86-8.75c1.24-2.53,2.99-4.51,5.25-5.94s4.92-2.14,7.98-2.14c2.47,0,4.67,.46,6.6,1.36,1.93,.91,3.5,2.18,4.69,3.82,1.19,1.64,1.9,3.55,2.13,5.73h-6.16c-.34-1.52-1.11-2.83-2.32-3.94-1.21-1.1-2.82-1.65-4.83-1.65-1.76,0-3.3,.46-4.62,1.39-1.32,.92-2.34,2.24-3.08,3.94s-1.1,3.71-1.1,6.02,.36,4.42,1.08,6.14c.72,1.72,1.74,3.05,3.06,4s2.87,1.42,4.67,1.42c1.2,0,2.29-.22,3.27-.67s1.81-1.08,2.48-1.92c.67-.83,1.14-1.83,1.41-3h6.16c-.23,2.1-.91,3.98-2.05,5.63s-2.67,2.95-4.58,3.89c-1.91,.94-4.15,1.42-6.72,1.42Z"/>
      <path class="cls-2" d="M352.02,30.35v5.08h-17.75v-5.08h17.75Zm-12.99-7.79h6.33v30.74c0,1.23,.18,2.15,.55,2.76,.37,.61,.84,1.03,1.43,1.25,.58,.22,1.22,.33,1.92,.33,.51,0,.95-.04,1.33-.11,.38-.07,.68-.13,.89-.17l1.14,5.23c-.37,.14-.89,.29-1.57,.43-.68,.15-1.52,.23-2.54,.24-1.66,.03-3.22-.27-4.65-.89-1.44-.62-2.6-1.58-3.49-2.88-.89-1.3-1.33-2.93-1.33-4.89V22.56Z"/>
    </g>
  </g>
</svg>