<?xml version="1.0" encoding="utf-8"?>
<!-- Generator: Adobe Illustrator 24.1.3, SVG Export Plug-In . SVG Version: 6.00 Build 0)  -->
<svg version="1.1" id="Layer_1" xmlns="http://www.w3.org/2000/svg" xmlns:xlink="http://www.w3.org/1999/xlink" x="0px" y="0px"
	 viewBox="0 0 1360.63 1388.98" style="enable-background:new 0 0 1360.63 1388.98;" xml:space="preserve">
<style type="text/css">
	.st0{fill:#FFFFFF;}
	.st1{fill:#1971B9;}
</style>
<g>
	<polygon class="st0" points="1312.53,108.28 755.81,108.28 606.09,108.28 49.38,108.28 521.88,707.14 521.88,1376.13 
		841.2,1226.43 840.01,707.14 	"/>
	<path class="st1" d="M820.25,666.5c32.72-45.52,66.39-90.3,100.38-134.82c16.91-22.33,34.15-44.39,51.24-66.58l51.78-66.16
		l52.29-65.76c17.61-21.78,35.04-43.69,52.83-65.33c35.39-43.42,71.12-86.57,107.79-128.98c-32.71,45.53-66.37,90.31-100.37,134.84
		c-16.91,22.33-34.16,44.38-51.25,66.57l-51.79,66.15l-52.3,65.75c-17.6,21.78-35.05,43.69-52.83,65.33
		C892.63,580.93,856.91,624.08,820.25,666.5"/>
	<path class="st1" d="M552.06,776.46c1.18,45.44,1.76,90.88,2.6,136.32l0.97,68.16l0.77,68.16l1.04,136.32
		c0.28,45.44,0.5,90.88,0.52,136.32l-8.41-5.34l65.01-30.63l65.1-30.43l65.12-30.39l65.21-30.19l-3.15,4.97l0.48-105.82l0.85-105.82
		l0.55-52.91l0.8-52.91c0.53-35.27,1.01-70.55,1.84-105.82c0.99,35.27,1.63,70.54,2.32,105.81l1.04,52.91l0.79,52.9l1.33,105.81
		l0.96,105.82l0.03,3.46l-3.18,1.51l-64.92,30.81l-65.01,30.63l-65.03,30.58l-65.12,30.39l-8.42,3.93l0-9.28
		c0.02-45.44,0.25-90.88,0.52-136.32l1.04-136.32l0.77-68.16l0.97-68.16C550.31,867.34,550.88,821.9,552.06,776.46"/>
	<path class="st1" d="M123.66,138.88c36.66,42.42,72.38,85.57,107.78,128.99c17.78,21.64,35.23,43.54,52.83,65.33l52.3,65.75
		l51.79,66.15c17.08,22.19,34.34,44.24,51.24,66.57c34,44.52,67.65,89.3,100.37,134.83c-36.67-42.41-72.4-85.56-107.79-128.98
		c-17.79-21.64-35.22-43.55-52.83-65.33l-52.29-65.76l-51.77-66.16c-17.09-22.19-34.34-44.25-51.24-66.58
		C190.04,229.19,156.38,184.4,123.66,138.88"/>
	<path class="st0" d="M1316.2,81.01H44.43c-18.82,0-34.08-15.26-34.08-34.08s15.26-34.08,34.08-34.08H1316.2
		c18.82,0,34.08,15.26,34.08,34.08S1335.02,81.01,1316.2,81.01"/>
</g>
</svg>
